G04 EAGLE Gerber RS-274X export*
G75*
%MOMM*%
%FSLAX34Y34*%
%LPD*%
%INTop Copper*%
%IPPOS*%
%AMOC8*
5,1,8,0,0,1.08239X$1,22.5*%
G01*
G04 Define Apertures*
%ADD10C,1.651000*%
%ADD11R,1.651000X1.651000*%
%ADD12C,1.430000*%
%ADD13C,1.625600*%
%ADD14C,3.327400*%
%ADD15R,3.000000X0.900000*%
%ADD16C,1.350000*%
%ADD17C,1.524000*%
%ADD18P,1.31965X8X22.5*%
%ADD19R,1.250000X0.400000*%
%ADD20C,1.050000*%
%ADD21R,1.500000X1.500000*%
%ADD22R,1.270000X1.270000*%
%ADD23C,0.254000*%
%ADD24C,0.406400*%
%ADD25C,1.524000*%
D10*
X241100Y342900D03*
D11*
X216100Y342900D03*
D12*
X131700Y215900D03*
X249300Y215900D03*
X279400Y215520D03*
X279400Y333120D03*
X211200Y292100D03*
X93600Y292100D03*
X383920Y158552D03*
X266320Y158552D03*
D13*
X330200Y304800D03*
X330200Y279400D03*
X406400Y279400D03*
X406400Y304800D03*
X330200Y254000D03*
X330200Y228600D03*
X406400Y254000D03*
X406400Y228600D03*
D14*
X630400Y294259D03*
X630400Y162941D03*
D15*
X588280Y218600D03*
X588280Y193600D03*
X588280Y238600D03*
X588280Y263600D03*
D16*
X165100Y355600D03*
X88900Y355600D03*
D17*
X241300Y109220D02*
X241300Y93980D01*
X215900Y93980D02*
X215900Y109220D01*
D13*
X457200Y304800D03*
X457200Y279400D03*
X533400Y279400D03*
X533400Y304800D03*
X457200Y254000D03*
X457200Y228600D03*
X533400Y254000D03*
X533400Y228600D03*
D18*
X558800Y342900D03*
X584200Y342900D03*
D12*
X553428Y157480D03*
X435828Y157480D03*
X411100Y381000D03*
X528700Y381000D03*
X271400Y381000D03*
X389000Y381000D03*
D17*
X266700Y109220D02*
X266700Y93980D01*
X292100Y93980D02*
X292100Y109220D01*
D19*
X50400Y266400D03*
X50400Y272900D03*
X50400Y279400D03*
X50400Y285900D03*
X50400Y292400D03*
D20*
X50400Y253400D03*
X50400Y305400D03*
D21*
X23900Y243400D03*
X23900Y315400D03*
D22*
X25400Y279400D03*
D17*
X105410Y109220D02*
X105410Y93980D01*
X130810Y93980D02*
X130810Y109220D01*
X156210Y109220D02*
X156210Y93980D01*
D23*
X330200Y304800D02*
X330200Y330200D01*
X342900Y342900D01*
X406400Y342900D01*
X431800Y317500D01*
X431800Y241300D01*
X444500Y228600D01*
X457200Y228600D01*
D24*
X93300Y292400D02*
X50400Y292400D01*
X93300Y292400D02*
X93600Y292100D01*
X588280Y263600D02*
X619200Y263600D01*
X630400Y274800D01*
X630400Y294259D01*
X575870Y263600D02*
X575310Y264160D01*
X575870Y263600D02*
X588280Y263600D01*
X575310Y264160D02*
X575310Y287020D01*
D25*
X575310Y287020D03*
X88600Y241000D03*
D24*
X25400Y279400D02*
X24150Y279400D01*
X25400Y279400D02*
X25400Y266700D01*
X25700Y266400D01*
X50400Y266400D01*
X63200Y266400D01*
X88600Y241000D01*
X568400Y193600D02*
X588280Y193600D01*
X568400Y193600D02*
X558800Y203200D01*
X558800Y241300D01*
X546100Y254000D01*
X533400Y254000D01*
D23*
X508000Y227000D01*
X508000Y203200D01*
X495300Y190500D01*
X393700Y190500D01*
X368300Y215900D01*
X368300Y241300D01*
X381000Y254000D01*
X406400Y254000D01*
M02*
