G04 EAGLE Gerber RS-274X export*
G75*
%MOMM*%
%FSLAX34Y34*%
%LPD*%
%IN*%
%IPPOS*%
%AMOC8*
5,1,8,0,0,1.08239X$1,22.5*%
G01*
G04 Define Apertures*
%ADD10C,0.254000*%
D10*
X0Y0D02*
X736600Y0D01*
X736600Y457200D01*
X0Y457200D01*
X0Y0D01*
X701040Y405856D02*
X701040Y406944D01*
X700962Y408030D01*
X700807Y409108D01*
X700576Y410171D01*
X700269Y411216D01*
X699889Y412236D01*
X699437Y413226D01*
X698915Y414181D01*
X698326Y415097D01*
X697674Y415969D01*
X696961Y416791D01*
X696191Y417561D01*
X695369Y418274D01*
X694497Y418926D01*
X693581Y419515D01*
X692626Y420037D01*
X691636Y420489D01*
X690616Y420869D01*
X689571Y421176D01*
X688508Y421407D01*
X687430Y421562D01*
X686344Y421640D01*
X685256Y421640D01*
X684170Y421562D01*
X683092Y421407D01*
X682029Y421176D01*
X680984Y420869D01*
X679964Y420489D01*
X678974Y420037D01*
X678019Y419515D01*
X677103Y418926D01*
X676231Y418274D01*
X675409Y417561D01*
X674639Y416791D01*
X673926Y415969D01*
X673274Y415097D01*
X672685Y414181D01*
X672163Y413226D01*
X671711Y412236D01*
X671331Y411216D01*
X671024Y410171D01*
X670793Y409108D01*
X670638Y408030D01*
X670560Y406944D01*
X670560Y405856D01*
X670638Y404770D01*
X670793Y403692D01*
X671024Y402629D01*
X671331Y401584D01*
X671711Y400564D01*
X672163Y399574D01*
X672685Y398619D01*
X673274Y397703D01*
X673926Y396831D01*
X674639Y396009D01*
X675409Y395239D01*
X676231Y394526D01*
X677103Y393874D01*
X678019Y393285D01*
X678974Y392763D01*
X679964Y392311D01*
X680984Y391931D01*
X682029Y391624D01*
X683092Y391393D01*
X684170Y391238D01*
X685256Y391160D01*
X686344Y391160D01*
X687430Y391238D01*
X688508Y391393D01*
X689571Y391624D01*
X690616Y391931D01*
X691636Y392311D01*
X692626Y392763D01*
X693581Y393285D01*
X694497Y393874D01*
X695369Y394526D01*
X696191Y395239D01*
X696961Y396009D01*
X697674Y396831D01*
X698326Y397703D01*
X698915Y398619D01*
X699437Y399574D01*
X699889Y400564D01*
X700269Y401584D01*
X700576Y402629D01*
X700807Y403692D01*
X700962Y404770D01*
X701040Y405856D01*
X701040Y50256D02*
X701040Y51344D01*
X700962Y52430D01*
X700807Y53508D01*
X700576Y54571D01*
X700269Y55616D01*
X699889Y56636D01*
X699437Y57626D01*
X698915Y58581D01*
X698326Y59497D01*
X697674Y60369D01*
X696961Y61191D01*
X696191Y61961D01*
X695369Y62674D01*
X694497Y63326D01*
X693581Y63915D01*
X692626Y64437D01*
X691636Y64889D01*
X690616Y65269D01*
X689571Y65576D01*
X688508Y65807D01*
X687430Y65962D01*
X686344Y66040D01*
X685256Y66040D01*
X684170Y65962D01*
X683092Y65807D01*
X682029Y65576D01*
X680984Y65269D01*
X679964Y64889D01*
X678974Y64437D01*
X678019Y63915D01*
X677103Y63326D01*
X676231Y62674D01*
X675409Y61961D01*
X674639Y61191D01*
X673926Y60369D01*
X673274Y59497D01*
X672685Y58581D01*
X672163Y57626D01*
X671711Y56636D01*
X671331Y55616D01*
X671024Y54571D01*
X670793Y53508D01*
X670638Y52430D01*
X670560Y51344D01*
X670560Y50256D01*
X670638Y49170D01*
X670793Y48092D01*
X671024Y47029D01*
X671331Y45984D01*
X671711Y44964D01*
X672163Y43974D01*
X672685Y43019D01*
X673274Y42103D01*
X673926Y41231D01*
X674639Y40409D01*
X675409Y39639D01*
X676231Y38926D01*
X677103Y38274D01*
X678019Y37685D01*
X678974Y37163D01*
X679964Y36711D01*
X680984Y36331D01*
X682029Y36024D01*
X683092Y35793D01*
X684170Y35638D01*
X685256Y35560D01*
X686344Y35560D01*
X687430Y35638D01*
X688508Y35793D01*
X689571Y36024D01*
X690616Y36331D01*
X691636Y36711D01*
X692626Y37163D01*
X693581Y37685D01*
X694497Y38274D01*
X695369Y38926D01*
X696191Y39639D01*
X696961Y40409D01*
X697674Y41231D01*
X698326Y42103D01*
X698915Y43019D01*
X699437Y43974D01*
X699889Y44964D01*
X700269Y45984D01*
X700576Y47029D01*
X700807Y48092D01*
X700962Y49170D01*
X701040Y50256D01*
X66040Y50256D02*
X66040Y51344D01*
X65962Y52430D01*
X65807Y53508D01*
X65576Y54571D01*
X65269Y55616D01*
X64889Y56636D01*
X64437Y57626D01*
X63915Y58581D01*
X63326Y59497D01*
X62674Y60369D01*
X61961Y61191D01*
X61191Y61961D01*
X60369Y62674D01*
X59497Y63326D01*
X58581Y63915D01*
X57626Y64437D01*
X56636Y64889D01*
X55616Y65269D01*
X54571Y65576D01*
X53508Y65807D01*
X52430Y65962D01*
X51344Y66040D01*
X50256Y66040D01*
X49170Y65962D01*
X48092Y65807D01*
X47029Y65576D01*
X45984Y65269D01*
X44964Y64889D01*
X43974Y64437D01*
X43019Y63915D01*
X42103Y63326D01*
X41231Y62674D01*
X40409Y61961D01*
X39639Y61191D01*
X38926Y60369D01*
X38274Y59497D01*
X37685Y58581D01*
X37163Y57626D01*
X36711Y56636D01*
X36331Y55616D01*
X36024Y54571D01*
X35793Y53508D01*
X35638Y52430D01*
X35560Y51344D01*
X35560Y50256D01*
X35638Y49170D01*
X35793Y48092D01*
X36024Y47029D01*
X36331Y45984D01*
X36711Y44964D01*
X37163Y43974D01*
X37685Y43019D01*
X38274Y42103D01*
X38926Y41231D01*
X39639Y40409D01*
X40409Y39639D01*
X41231Y38926D01*
X42103Y38274D01*
X43019Y37685D01*
X43974Y37163D01*
X44964Y36711D01*
X45984Y36331D01*
X47029Y36024D01*
X48092Y35793D01*
X49170Y35638D01*
X50256Y35560D01*
X51344Y35560D01*
X52430Y35638D01*
X53508Y35793D01*
X54571Y36024D01*
X55616Y36331D01*
X56636Y36711D01*
X57626Y37163D01*
X58581Y37685D01*
X59497Y38274D01*
X60369Y38926D01*
X61191Y39639D01*
X61961Y40409D01*
X62674Y41231D01*
X63326Y42103D01*
X63915Y43019D01*
X64437Y43974D01*
X64889Y44964D01*
X65269Y45984D01*
X65576Y47029D01*
X65807Y48092D01*
X65962Y49170D01*
X66040Y50256D01*
X66040Y405856D02*
X66040Y406944D01*
X65962Y408030D01*
X65807Y409108D01*
X65576Y410171D01*
X65269Y411216D01*
X64889Y412236D01*
X64437Y413226D01*
X63915Y414181D01*
X63326Y415097D01*
X62674Y415969D01*
X61961Y416791D01*
X61191Y417561D01*
X60369Y418274D01*
X59497Y418926D01*
X58581Y419515D01*
X57626Y420037D01*
X56636Y420489D01*
X55616Y420869D01*
X54571Y421176D01*
X53508Y421407D01*
X52430Y421562D01*
X51344Y421640D01*
X50256Y421640D01*
X49170Y421562D01*
X48092Y421407D01*
X47029Y421176D01*
X45984Y420869D01*
X44964Y420489D01*
X43974Y420037D01*
X43019Y419515D01*
X42103Y418926D01*
X41231Y418274D01*
X40409Y417561D01*
X39639Y416791D01*
X38926Y415969D01*
X38274Y415097D01*
X37685Y414181D01*
X37163Y413226D01*
X36711Y412236D01*
X36331Y411216D01*
X36024Y410171D01*
X35793Y409108D01*
X35638Y408030D01*
X35560Y406944D01*
X35560Y405856D01*
X35638Y404770D01*
X35793Y403692D01*
X36024Y402629D01*
X36331Y401584D01*
X36711Y400564D01*
X37163Y399574D01*
X37685Y398619D01*
X38274Y397703D01*
X38926Y396831D01*
X39639Y396009D01*
X40409Y395239D01*
X41231Y394526D01*
X42103Y393874D01*
X43019Y393285D01*
X43974Y392763D01*
X44964Y392311D01*
X45984Y391931D01*
X47029Y391624D01*
X48092Y391393D01*
X49170Y391238D01*
X50256Y391160D01*
X51344Y391160D01*
X52430Y391238D01*
X53508Y391393D01*
X54571Y391624D01*
X55616Y391931D01*
X56636Y392311D01*
X57626Y392763D01*
X58581Y393285D01*
X59497Y393874D01*
X60369Y394526D01*
X61191Y395239D01*
X61961Y396009D01*
X62674Y396831D01*
X63326Y397703D01*
X63915Y398619D01*
X64437Y399574D01*
X64889Y400564D01*
X65269Y401584D01*
X65576Y402629D01*
X65807Y403692D01*
X65962Y404770D01*
X66040Y405856D01*
M02*
