G04 EAGLE Gerber RS-274X export*
G75*
%MOMM*%
%FSLAX34Y34*%
%LPD*%
%INSoldermask Bottom*%
%IPPOS*%
%AMOC8*
5,1,8,0,0,1.08239X$1,22.5*%
G01*
G04 Define Apertures*
%ADD10C,1.854200*%
%ADD11R,1.854200X1.854200*%
%ADD12C,1.633200*%
%ADD13C,1.828800*%
%ADD14C,3.530600*%
%ADD15C,1.553200*%
%ADD16C,1.727200*%
%ADD17P,1.53959X8X22.5*%
%ADD18C,1.253200*%
%ADD19R,1.703200X1.703200*%
%ADD20C,1.727200*%
D10*
X241100Y342900D03*
D11*
X216100Y342900D03*
D12*
X131700Y215900D03*
X249300Y215900D03*
X279400Y215520D03*
X279400Y333120D03*
X211200Y292100D03*
X93600Y292100D03*
X383920Y158552D03*
X266320Y158552D03*
D13*
X330200Y304800D03*
X330200Y279400D03*
X406400Y279400D03*
X406400Y304800D03*
X330200Y254000D03*
X330200Y228600D03*
X406400Y254000D03*
X406400Y228600D03*
D14*
X630400Y294259D03*
X630400Y162941D03*
D15*
X165100Y355600D03*
X88900Y355600D03*
D16*
X241300Y109220D02*
X241300Y93980D01*
X215900Y93980D02*
X215900Y109220D01*
D13*
X457200Y304800D03*
X457200Y279400D03*
X533400Y279400D03*
X533400Y304800D03*
X457200Y254000D03*
X457200Y228600D03*
X533400Y254000D03*
X533400Y228600D03*
D17*
X558800Y342900D03*
X584200Y342900D03*
D12*
X553428Y157480D03*
X435828Y157480D03*
X411100Y381000D03*
X528700Y381000D03*
X271400Y381000D03*
X389000Y381000D03*
D16*
X266700Y109220D02*
X266700Y93980D01*
X292100Y93980D02*
X292100Y109220D01*
D18*
X50400Y253400D03*
X50400Y305400D03*
D19*
X23900Y243400D03*
X23900Y315400D03*
D16*
X105410Y109220D02*
X105410Y93980D01*
X130810Y93980D02*
X130810Y109220D01*
X156210Y109220D02*
X156210Y93980D01*
D20*
X575310Y287020D03*
X88600Y241000D03*
M02*
