M48
;GenerationSoftware,Autodesk,EAGLE,9.7.0*%
;CreationDate,2021-08-18T03:29:10Z*%
FMAT,2
ICI,OFF
METRIC,TZ,000.000
T7C0.700
T6C0.813
T5C0.830
T4C0.900
T3C1.000
T2C1.016
T1C2.311
%
G90
M71
T1
X63040Y16294
X63040Y29426
T2
X21590Y10160
X15621Y10160
X13081Y10160
X10541Y10160
X29210Y10160
X26670Y10160
X8860Y24100
X57531Y28702
X24130Y10160
T3
X2390Y31540
X2390Y24340
T4
X16510Y35560
X8890Y35560
T5
X13170Y21590
X24930Y21590
X27940Y21552
X27940Y33312
X21120Y29210
X9360Y29210
X38392Y15855
X26632Y15855
X38900Y38100
X27140Y38100
X52870Y38100
X41110Y38100
X43583Y15748
X55343Y15748
T6
X53340Y30480
X45720Y25400
X45720Y22860
X53340Y25400
X53340Y22860
X55880Y34290
X58420Y34290
X53340Y27940
X45720Y27940
X45720Y30480
X40640Y22860
X40640Y25400
X33020Y22860
X33020Y25400
X40640Y30480
X40640Y27940
X33020Y27940
X33020Y30480
T7
X24110Y34290
X5040Y25340
X5040Y30540
X21610Y34290
M30